<svg width="44" height="44" viewBox="0 0 44 44" fill="none" xmlns="http://www.w3.org/2000/svg">
<path fill-rule="evenodd" clip-rule="evenodd" d="M2.75017 1.28972V2.56723L3.49125 2.65556C5.08015 2.84505 6.70427 4.04508 7.46174 5.58971L7.83646 6.35377L7.88003 13.5741L7.92361 20.7945H6.62744H5.33127V30.6231C5.33127 39.0731 5.36437 40.5641 5.56752 41.2527C6.55137 44.5869 11.1553 44.9344 12.7046 41.7914C12.9853 41.2221 13.0006 40.7298 13.0407 30.9947L13.0829 20.7945H11.7881H10.4935V13.7972C10.4935 6.11859 10.474 5.91565 9.56731 4.10773C8.61261 2.20415 6.42672 0.573341 4.28578 0.167166C2.70037 -0.133568 2.75017 -0.169937 2.75017 1.28972ZM20.3624 0.257019C14.3539 1.87499 14.0858 10.4661 19.9786 12.5543L20.742 12.8247L20.7825 16.8096L20.8229 20.7945H19.5299H18.2368V30.9266V41.0585L18.63 41.8528C20.0475 44.7157 24.0175 44.7157 25.435 41.8528L25.8282 41.0585V30.9266V20.7945H24.5351H23.2421L23.2825 16.8096L23.323 12.8247L24.0864 12.5543C28.3893 11.0295 29.8053 5.55624 26.7775 2.15143C25.2114 0.390272 22.6626 -0.362328 20.3624 0.257019ZM30.9904 1.31097V2.60987H34.3981C38.3211 2.60987 38.6426 2.70706 38.6426 3.89242C38.6426 4.96975 38.2989 5.12378 35.7693 5.18078L33.5715 5.23029V13.0124V20.7945H32.2769H30.9821L31.0243 30.9947C31.0642 40.6969 31.0806 41.2238 31.3577 41.7857C32.9074 44.9281 37.5144 44.5843 38.4975 41.2527C38.7006 40.5641 38.7337 39.0731 38.7337 30.6231V20.7945H37.4432H36.1526V14.322V7.84965L37.2868 7.76331C41.2489 7.46166 42.696 2.82961 39.5043 0.664876C38.6619 0.0935112 38.0437 0.0137423 34.4445 0.0129782L30.9904 0.0120619V1.31097ZM23.5508 2.92787C27.3137 4.64227 26.1512 10.2438 22.0325 10.2438C17.9559 10.2438 16.7467 4.7306 20.4383 2.97402C21.4067 2.51329 22.6019 2.49557 23.5508 2.92787ZM10.4935 24.6912V25.9901H9.20292H7.91237V24.6912V23.3923H9.20292H10.4935V24.6912ZM23.2471 24.6912V25.9901H22.0325H20.8179V24.6912V23.3923H22.0325H23.2471V24.6912ZM36.1526 24.6912V25.9901H34.8621H33.5715V24.6912V23.3923H34.8621H36.1526V24.6912ZM10.4935 34.6017V40.6155L10.1212 41.0198C9.58265 41.6046 8.82654 41.5773 8.30546 40.954L7.91237 40.4839V34.5358V28.5879H9.20292H10.4935V34.6017ZM23.2471 34.6309V40.674L22.8744 41.049C22.6395 41.2856 22.3283 41.4242 22.0325 41.4242C21.7367 41.4242 21.4255 41.2856 21.1906 41.049L20.8179 40.674V34.6309V28.5879H22.0325H23.2471V34.6309ZM36.1526 34.5358V40.4839L35.7595 40.954C35.2385 41.5773 34.4824 41.6046 33.9438 41.0198L33.5715 40.6155V34.6017V28.5879H34.8621H36.1526V34.5358Z" fill="#252B29"/>
</svg>
