<svg width="44" height="44" viewBox="0 0 44 44" fill="none" xmlns="http://www.w3.org/2000/svg">
<path fill-rule="evenodd" clip-rule="evenodd" d="M10.796 2.02501C5.78427 2.93574 1.83301 7.66439 1.83301 12.7513C1.83301 16.7972 4.34698 26.8831 6.92859 33.1941C9.77559 40.1537 12.7838 43.1634 15.6018 41.8717C17.2073 41.1356 17.67 39.9896 18.8404 33.8492C19.6963 29.3586 20.5026 27.8198 21.9997 27.8198C23.5564 27.8198 24.3425 29.4041 25.3004 34.4735C26.3519 40.0372 26.7832 41.0697 28.384 41.8539C31.5031 43.3818 35.0108 39.2735 38.1288 30.4404C40.2717 24.3701 42.1663 16.0706 42.1663 12.7544C42.1663 8.34039 39.1384 4.04194 34.9635 2.52939C31.0248 1.1025 27.4912 1.85479 23.6316 4.94187C22.8591 5.55968 22.3634 5.46854 20.1998 4.31158C17.8284 3.04329 17.1284 2.70859 16.1786 2.3893C14.4215 1.7987 12.687 1.68133 10.796 2.02501ZM14.7549 5.25414C15.2216 5.37515 16.0499 5.6992 16.5957 5.97417C17.8476 6.60474 20.039 7.83812 20.039 7.91216C20.039 8.27897 17.4168 9.61373 16.2134 9.85954L15.3475 10.0364V11.5666V13.0967L16.0477 13.0511C18.4247 12.8961 20.2666 11.8902 24.1539 8.62349C27.3685 5.92215 28.7599 5.18109 30.8295 5.06793C34.4541 4.86966 37.8131 7.33151 38.7309 10.859C40.0281 15.8454 34.3267 34.8343 30.4613 38.4018C29.4894 39.2988 29.3269 38.951 28.4415 34.0793C27.1256 26.8396 25.0087 24.0947 21.2018 24.6923C18.2834 25.1505 16.8202 27.5529 15.6246 33.8492C14.6412 39.0279 14.5146 39.303 13.5322 38.3963C9.68358 34.8444 3.97221 15.8417 5.2626 10.8816C6.33312 6.76628 10.6712 4.19464 14.7549 5.25414Z" fill="#252B29"/>
</svg>
