<svg width="44" height="44" viewBox="0 0 44 44" fill="none" xmlns="http://www.w3.org/2000/svg">
<g clip-path="url(#clip0_4059_11674)">
<path fill-rule="evenodd" clip-rule="evenodd" d="M11.3577 1.13228C1.90909 2.7868 -2.36652 13.5436 3.80554 20.1323L4.45715 20.8277H7.32369H10.1902V23.9025V26.9773H13.4592H16.7281V28.2218V29.4664H15.405H14.0818V30.7109V31.9555H15.405H16.7281V33.7857V35.6159H15.405H14.0818V36.8604V38.105H15.405H16.7281V40.5941V43.0832H22.0207H27.3132V40.5941V38.105H28.6363H29.9595V36.8604V35.6159H28.6363H27.3132V33.7857V31.9555H28.6363H29.9595V30.7109V29.4664H28.6363H27.3132V28.2218V26.9773H30.5821H33.8511V23.9025V20.8277H36.7184H39.5857L40.3676 20.0027C44.4511 15.6932 43.8554 8.35548 39.0832 4.18493C34.9905 0.608107 29.7585 -0.0471096 24.5125 2.35999C22.4369 3.31243 21.6064 3.31214 19.53 2.35809C16.5371 0.982789 14.207 0.633291 11.3577 1.13228ZM15.6856 3.6407C16.3017 3.77101 17.5064 4.19665 18.3626 4.5867C19.3292 5.02713 20.3174 5.35935 20.9699 5.46316C22.4774 5.70314 23.7476 5.46667 25.6787 4.5867C29.014 3.06704 31.8576 3.02209 34.9174 4.44073C40.0692 6.82938 42.0359 13.0303 39.0582 17.4968L38.497 18.3387H22.0207H5.5443L4.98313 17.4968C0.481658 10.7444 7.33178 1.87608 15.6856 3.6407ZM31.2048 22.658V24.4882H22.0207H12.8365V22.658V20.8277H22.0207H31.2048V22.658ZM24.6669 28.2218V29.4664H22.0207H19.3744V28.2218V26.9773H22.0207H24.6669V28.2218ZM24.6669 33.7857V35.6159H22.0207H19.3744V33.7857V31.9555H22.0207H24.6669V33.7857ZM24.6669 39.3495V40.5941H22.0207H19.3744V39.3495V38.105H22.0207H24.6669V39.3495Z" fill="#252B29"/>
</g>
<defs>
<clipPath id="clip0_4059_11674">
<rect width="44" height="44" fill="white"/>
</clipPath>
</defs>
</svg>
