<svg width="44" height="44" viewBox="0 0 44 44" fill="none" xmlns="http://www.w3.org/2000/svg">
<path fill-rule="evenodd" clip-rule="evenodd" d="M21.4846 2.29358C21.8166 2.16907 22.1825 2.16907 22.5145 2.29358L37.1812 7.79358C37.7536 8.00825 38.1329 8.55549 38.1329 9.16686V22.0002C38.1329 28.155 34.053 33.1106 30.2987 36.3956C28.3907 38.0651 26.4897 39.3713 25.0685 40.2595C24.3564 40.7046 23.7609 41.0471 23.3401 41.2801C23.1296 41.3967 22.9625 41.4859 22.846 41.5471C22.7878 41.5776 22.7422 41.6012 22.7101 41.6176L22.6723 41.6369L22.6612 41.6425L22.6577 41.6442C22.6572 41.6445 22.6555 41.6454 21.9995 40.3335C21.3436 41.6454 21.3432 41.6451 21.3427 41.6449L21.3379 41.6425L21.3268 41.6369L21.289 41.6176C21.2569 41.6012 21.2113 41.5776 21.1531 41.5471C21.0366 41.4859 20.8695 41.3967 20.659 41.2801C20.2382 41.0471 19.6426 40.7046 18.9305 40.2595C17.5094 39.3713 15.6084 38.0651 13.7004 36.3956C9.9461 33.1106 5.86621 28.155 5.86621 22.0002V9.16686C5.86621 8.55549 6.24545 8.00825 6.8179 7.79358L21.4846 2.29358ZM21.9995 40.3335L21.3427 41.6449C21.7556 41.8513 22.2426 41.8518 22.6555 41.6454L21.9995 40.3335ZM21.9995 38.6692C22.376 38.4592 22.8961 38.1582 23.5139 37.7721C24.8427 36.9415 26.6084 35.7269 28.3671 34.1881C31.9461 31.0564 35.1995 26.8454 35.1995 22.0002V10.1833L21.9995 5.23326L8.79954 10.1833V22.0002C8.79954 26.8454 12.053 31.0564 15.632 34.1881C17.3907 35.7269 19.1563 36.9415 20.4852 37.7721C21.103 38.1582 21.623 38.4592 21.9995 38.6692Z" fill="#252B29"/>
<path fill-rule="evenodd" clip-rule="evenodd" d="M30.0556 14.0848C30.6875 14.5916 30.7889 15.5147 30.2821 16.1466L21.4591 27.1466C21.1808 27.4937 20.7599 27.6956 20.315 27.6956C19.8701 27.6956 19.4493 27.4937 19.1709 27.1466L15.1605 22.1466C14.6537 21.5147 14.7551 20.5916 15.3869 20.0848C16.0188 19.578 16.9419 19.6794 17.4487 20.3113L20.315 23.8848L27.9938 14.3113C28.5007 13.6794 29.4237 13.578 30.0556 14.0848Z" fill="#252B29"/>
</svg>
