<svg width="70" height="70" viewBox="0 0 70 70" fill="none" xmlns="http://www.w3.org/2000/svg">
<path d="M40.6112 21.8697L48.9589 14.6613C50.6575 13.1946 53.1765 13.2017 54.8666 14.6781V14.6781C57.043 16.5791 56.8918 20.0087 54.5567 21.7109L42.5 30.5" stroke="#2F2F2F" stroke-width="2.5" stroke-linecap="round" stroke-linejoin="round"/>
<path d="M47.5 33C49.7461 34.7651 51.5019 36.7132 51.5019 36.7132L57.5781 44.4917V51.0548L50.6638 60.0487L52.9686 53.4856V47.6518L41.5 38.5" stroke="#2F2F2F" stroke-width="2.5" stroke-linecap="round" stroke-linejoin="round"/>
<path d="M30.0958 21.8697L21.7481 14.6613C20.0496 13.1946 17.5305 13.2017 15.8404 14.6781V14.6781C13.6641 16.5791 13.8152 20.0087 16.1503 21.7109L28.207 30.5" stroke="#2F2F2F" stroke-width="2.5" stroke-linecap="round" stroke-linejoin="round"/>
<path d="M23.207 33C20.9609 34.7651 19.2051 36.7132 19.2051 36.7132L13.1289 44.4917V51.0548L20.0432 60.0487L17.7384 53.4856V47.6518L29.207 38.5" stroke="#2F2F2F" stroke-width="2.5" stroke-linecap="round" stroke-linejoin="round"/>
<circle cx="35.5781" cy="33.5" r="7.5" stroke="#2F2F2F" stroke-width="2.5" stroke-linecap="round"/>
</svg>
