<svg width="70" height="70" viewBox="0 0 70 70" fill="none" xmlns="http://www.w3.org/2000/svg">
<path d="M55 23.5C55 22 55.0079 22.0445 54.8606 21C54.4764 18.2744 53.2729 15.8677 50.9467 14.3176C44.7657 10.1988 40.349 12.4435 36.7967 14.371C35.0288 15.3303 32.9704 15.3303 31.2024 14.3709C27.6504 12.4434 23.2342 10.1988 17.0533 14.3176C14.0359 16.3283 12.9075 19.7804 13.0059 23.5M54.3339 28C53.7531 30.2405 52.8279 32.4092 51.6999 34.2551C47.934 40.4177 50.5701 48.7552 46.0511 56.7302C41.5321 64.7052 38.1429 60.7177 37.7663 51.2927C37.465 43.7527 35.1293 41.8677 33.9996 41.8677C32.8698 41.8677 30.535 43.7527 30.2337 51.2927C29.8572 60.7177 26.4679 64.7052 21.9489 56.7302C17.4299 48.7552 20.066 40.4176 16.3001 34.2551C15.1721 32.4092 14.2469 30.2405 13.6661 28" stroke="#2F2F2F" stroke-width="2.5" stroke-linecap="round"/>
<rect x="28" y="21" width="12" height="15" rx="3" stroke="#2F2F2F" stroke-width="2.5" stroke-linecap="round"/>
<path d="M40 28L54 28" stroke="#2F2F2F" stroke-width="2.5" stroke-linecap="round"/>
<path d="M14 28H28" stroke="#2F2F2F" stroke-width="2.5" stroke-linecap="round"/>
</svg>
