<svg width="70" height="70" viewBox="0 0 70 70" fill="none" xmlns="http://www.w3.org/2000/svg">
<path d="M44.5 16H49.25C50.5098 16 51.718 16.5034 52.6088 17.3994C53.4996 18.2954 54 19.5106 54 20.7778V54.2222C54 55.4894 53.4996 56.7046 52.6088 57.6006C51.718 58.4966 50.5098 59 49.25 59H20.75C19.4902 59 18.282 58.4966 17.3912 57.6006C16.5004 56.7046 16 55.4894 16 54.2222V20.7778C16 19.5106 16.5004 18.2954 17.3912 17.3994C18.282 16.5034 19.4902 16 20.75 16H25.5" stroke="#2F2F2F" stroke-width="2.5" stroke-linecap="round"/>
<path d="M41.75 12H28.25C27.0074 12 26 13.0074 26 14.25V18.75C26 19.9926 27.0074 21 28.25 21H41.75C42.9926 21 44 19.9926 44 18.75V14.25C44 13.0074 42.9926 12 41.75 12Z" stroke="#2F2F2F" stroke-width="2.5" stroke-linecap="round"/>
<path d="M33.3859 45.2359C33.515 42.3123 34.5156 41.5813 34.9998 41.5813C35.484 41.5813 36.485 42.3123 36.6141 45.2359C36.7755 48.8905 38.228 50.4367 40.1647 47.3444C42.1014 44.252 40.9717 41.0191 42.5856 38.6295C43.0691 37.9138 43.4656 37.0728 43.7145 36.2041L43.8428 35.4195C43.9474 34.7803 44.04 34.1297 43.9402 33.4898C43.7756 32.4329 43.2598 31.4997 42.2628 30.8987C39.665 29.3324 37.7943 30.1393 36.2872 30.8759C35.4645 31.2781 34.5351 31.2781 33.7124 30.8759C32.2054 30.1393 30.3349 29.3324 27.7371 30.8986C26.444 31.6783 25.9603 33.0169 26.0025 34.4592L26.2855 36.2041C26.5344 37.0728 26.9309 37.9138 27.4143 38.6295C29.0283 41.0191 27.8985 44.252 29.8352 47.3444C31.7719 50.4367 33.2245 48.8905 33.3859 45.2359Z" stroke="#2F2F2F" stroke-width="2.5" stroke-linecap="round"/>
</svg>
